<?xml version="1.0" encoding="utf-8"?>
<!-- Generator: Adobe Illustrator 24.0.3, SVG Export Plug-In . SVG Version: 6.00 Build 0)  -->
<svg version="1.1" id="Layer_1" xmlns="http://www.w3.org/2000/svg" xmlns:xlink="http://www.w3.org/1999/xlink" x="0px" y="0px"
	 viewBox="0 0 582.5 230.8" style="enable-background:new 0 0 582.5 230.8;" xml:space="preserve">
<style type="text/css">
	@import url('https://fonts.googleapis.com/css?family=Cinzel&amp;display=swap');
	.st0{fill:#0D5D89;}
	.st1{fill:#F5A61C;}
	.st2{font-family:'Cinzel';}
	.st3{font-size:107.2294px;}
	.st4{font-size:38.4659px;}
</style>
<g>
	<g>
		<path class="st0" d="M127.8,203L127.8,203c-11.5,9.7-28.8,8.2-38.5-3.2L6.4,101.7C-3.3,90.3-1.8,73,9.6,63.3l0,0
			c11.5-9.7,28.8-8.2,38.5,3.2l82.9,98.1C140.7,176,139.2,193.3,127.8,203z"/>
		<path class="st1" d="M238.7,43.7L133,201.3c-8.6,12.8-26.1,16.3-39,7.7l0,0c-12.8-8.6-16.3-26.1-7.7-39L192,12.4
			c8.6-12.8,26.1-16.3,39-7.7l0,0C243.8,13.3,247.3,30.9,238.7,43.7z"/>
	</g>
	<g>
		<g>
			<text transform="matrix(1 0 0 1 210.718 176.1285)" class="st0 st2 st3">IP CPA</text>
		</g>
		<g>
			<text transform="matrix(1 0 0 1 210.9417 213.7721)" class="st0 st2 st4">Accounting Firm</text>
		</g>
	</g>
</g>
</svg>
