<svg width="538" height="220" xmlns="http://www.w3.org/2000/svg">
 <style type="text/css">.st0{fill:#0D5D89;}
	.st1{fill:#F5A61C;}
	.st2{font-family:'Cinzel-Bold';}
	.st3{font-size:107.2294px;}
	.st4{font-size:38.4659px;}</style>

 <g>
  <title>background</title>
  <rect fill="none" id="canvas_background" height="222" width="540" y="-1" x="-1"/>
 </g>
 <g>
  <title>Layer 1</title>
  <g id="svg_1">
   <g id="svg_2">
    <path id="svg_3" d="m130.771821,204.23156l0,0c-11.46,9.69 -28.77,8.24 -38.46,-3.22l-82.9,-98.06c-9.69,-11.46 -8.24,-28.77 3.22,-38.46l0,0c11.46,-9.69 28.77,-8.24 38.46,3.22l82.9,98.06c9.7,11.46 8.25,28.77 -3.22,38.46z" class="st0"/>
    <path id="svg_4" d="m241.691821,44.90156l-105.71,157.65c-8.6,12.83 -26.14,16.29 -38.97,7.69l0,0c-12.83,-8.6 -16.29,-26.14 -7.69,-38.97l105.71,-157.65c8.6,-12.83 26.14,-16.29 38.97,-7.69l0,0c12.84,8.61 16.3,26.14 7.69,38.97z" class="st1"/>
   </g>
   <g id="svg_5">
    <g id="svg_6">
     <text x="-176.548179" y="-352.94844" id="svg_7" class="st0 st2 st3" transform="matrix(1,0,0,1,390.2603,530.2792) ">IP CPA</text>
    </g>
    <g id="svg_8">
     <text x="-176.548179" y="-352.94844" id="svg_9" class="st0 st2 st4" transform="matrix(1,0,0,1,390.484,567.9227) ">Accounting Firm</text>
    </g>
   </g>
  </g>
 </g>
</svg>