<?xml version="1.0" standalone="no"?>
<!DOCTYPE svg PUBLIC "-//W3C//DTD SVG 20010904//EN"
 "http://www.w3.org/TR/2001/REC-SVG-20010904/DTD/svg10.dtd">
<svg version="1.0" xmlns="http://www.w3.org/2000/svg"
 width="260.000000pt" height="260.000000pt" viewBox="0 0 260.000000 260.000000"
 preserveAspectRatio="xMidYMid meet">
<metadata>
Created by potrace 1.11, written by Peter Selinger 2001-2013
</metadata>
<g transform="translate(0.000000,260.000000) scale(0.100000,-0.100000)"
fill="#000000" stroke="none">
<path d="M2165 2371 c-33 -16 -74 -44 -92 -62 -26 -28 -532 -778 -828 -1226
-44 -67 -83 -122 -86 -122 -3 -1 -26 24 -50 55 -24 30 -57 70 -74 88 -88 96
-220 260 -218 273 0 8 -2 12 -5 9 -9 -10 -62 46 -55 58 3 6 3 8 -2 4 -4 -4
-37 28 -72 70 -36 42 -93 109 -127 149 -36 43 -81 83 -111 100 -44 25 -60 28
-140 28 -80 0 -95 -3 -136 -27 -57 -33 -106 -88 -132 -147 -16 -36 -19 -60
-15 -125 3 -46 11 -94 20 -111 17 -32 100 -135 278 -343 58 -68 104 -128 102
-133 -1 -5 2 -8 7 -7 5 2 46 -42 91 -97 46 -55 87 -101 91 -103 5 -2 9 -8 9
-12 0 -5 12 -22 27 -38 57 -60 218 -254 229 -275 6 -12 21 -43 34 -69 29 -62
77 -110 137 -139 38 -19 64 -24 128 -24 94 0 151 22 208 78 19 20 157 218 305
439 148 222 352 526 453 676 101 150 195 290 209 312 14 22 60 91 103 154 118
175 132 206 132 296 -1 178 -124 299 -305 300 -40 0 -71 -8 -115 -29z"/>
</g>
</svg>
