<?xml version="1.0" encoding="utf-8"?>
<!-- Generator: Adobe Illustrator 17.1.0, SVG Export Plug-In . SVG Version: 6.00 Build 0)  -->
<!DOCTYPE svg PUBLIC "-//W3C//DTD SVG 1.1//EN" "http://www.w3.org/Graphics/SVG/1.1/DTD/svg11.dtd">
<svg version="1.1" id="Capa_1" xmlns="http://www.w3.org/2000/svg" xmlns:xlink="http://www.w3.org/1999/xlink" x="0px" y="0px"
	 viewBox="0 131 612 514.9" enable-background="new 0 131 612 514.9" xml:space="preserve">
<path fill="#808080" d="M344.2,373.2v31.6c0,18-14.6,32.5-32.5,32.5h-11.3c-18,0-32.5-14.6-32.5-32.5v-31.6H344.2z"/>
<path fill="#FFBD00" d="M344.2,373.1L344.2,373.1l-76.4,0.1v-0.1c0-25.8-7.8-50.8-21.3-72.7c-7.1-11.5-10.9-25.1-10.3-39.7
	c1.6-36,31-65.2,67-66.6c39.8-1.5,72.6,30.3,72.6,69.8c0,14-4.1,27-11.2,37.9C350.9,322.9,344.2,347.9,344.2,373.1z"/>
<polygon fill="#808080" points="360.5,534.3 373.3,631.8 238.7,631.8 251.6,534.3 "/>
<path fill="#999999" d="M612,476.4v40.8c0,9.5-7.7,17.1-17.1,17.1H360.5H251.6H17.1c-9.4,0-17.1-7.7-17.1-17.1v-40.8L612,476.4
	L612,476.4z"/>
<path fill="#E2E0D0" d="M267.8,373.2v31.6c0,18,14.6,32.5,32.5,32.5h11.3c18,0,32.5-14.6,32.5-32.5v-31.6v-0.1
	c0-25.2,6.7-50.2,20.4-71.4c7.1-10.9,11.2-23.9,11.2-37.9c0-39.5-32.8-71.3-72.6-69.8c-36,1.4-65.4,30.6-67,66.6
	c-0.6,14.6,3.2,28.2,10.3,39.7C260,322.3,267.8,347.3,267.8,373.2L267.8,373.2L267.8,373.2z M612,163.2v313.2H0V163.2
	c0-9.4,7.7-17.1,17.1-17.1h577.8C604.3,146.1,612,153.8,612,163.2z"/>
<rect x="187.4" y="617.6" fill="#999999" width="237.2" height="28.3"/>
<path fill="#EAE8DC" d="M246.7,146.1L46.9,476.4h561.8V151.9c-3.1-3.5-7.7-5.8-12.8-5.8L246.7,146.1L246.7,146.1z M365.7,301.7
	c-13.7,21.2-20.4,46.1-20.4,71.4v0.1v31.6c0,18-14.6,32.5-32.5,32.5h-11.3c-18,0-32.5-14.6-32.5-32.5v-31.6v-0.1
	c0-25.8-7.8-50.8-21.3-72.7c-7.1-11.5-10.9-25.1-10.3-39.7c1.6-36,31-65.2,67-66.6c39.8-1.5,72.6,30.3,72.6,69.8
	C376.9,277.8,372.8,290.8,365.7,301.7z"/>
</svg>
